<?xml version="1.0" encoding="utf-8"?>
<!-- Generator: Adobe Illustrator 27.5.0, SVG Export Plug-In . SVG Version: 6.00 Build 0)  -->
<svg version="1.1" xmlns="http://www.w3.org/2000/svg" xmlns:xlink="http://www.w3.org/1999/xlink" x="0px" y="0px"
	 viewBox="0 0 750 500" style="enable-background:new 0 0 750 500;" xml:space="preserve">
<g id="BACKGROUND">
	<g>
		<rect style="fill:#FBF9FA;" width="750" height="500"/>
		<g>
			<path style="fill:#98D3E5;" d="M655.554,450.499H94.446c-8.226,0-14.895-6.669-14.895-14.895v0
				c0-8.226,6.669-14.895,14.895-14.895h561.108c8.226,0,14.895,6.669,14.895,14.895v0
				C670.449,443.83,663.78,450.499,655.554,450.499z"/>
			<circle style="fill:#D2E6FF;" cx="368.988" cy="220.719" r="171.218"/>
			<path style="fill:#579BAA;" d="M637.663,431.691H112.337c-4.163,0-7.538-3.375-7.538-7.538v0c0-4.163,3.375-7.538,7.538-7.538
				h525.325c4.163,0,7.538,3.375,7.538,7.538v0C645.2,428.316,641.826,431.691,637.663,431.691z"/>
			<g>
				<circle style="opacity:0.25;fill:#FFD152;" cx="483.401" cy="91.388" r="35.547"/>
				<circle style="fill:#FFD152;" cx="483.401" cy="91.388" r="23.902"/>
			</g>
		</g>
	</g>
</g>
<g id="OBJECTS">
	<g>
		<g>
			<rect x="151.685" y="270.968" style="fill:#C0F3FF;" width="21.206" height="26.33"/>
			
				<rect x="105.203" y="270.968" transform="matrix(-1 -1.224647e-16 1.224647e-16 -1 256.888 568.2655)" style="fill:#98D3E5;" width="46.483" height="26.33"/>
			<g>
				<g>
					<rect x="106.96" y="272.446" style="fill:#579BAA;" width="2.267" height="23.86"/>
					<rect x="106.96" y="272.446" style="fill:#3E7084;" width="0.778" height="23.86"/>
				</g>
				<g>
					<rect x="110.982" y="272.446" style="fill:#579BAA;" width="2.267" height="23.86"/>
					<rect x="110.982" y="272.446" style="fill:#3E7084;" width="0.778" height="23.86"/>
				</g>
				<g>
					<rect x="115.005" y="272.446" style="fill:#579BAA;" width="2.267" height="23.86"/>
					<rect x="115.005" y="272.446" style="fill:#3E7084;" width="0.778" height="23.86"/>
				</g>
				<g>
					<rect x="119.027" y="272.446" style="fill:#579BAA;" width="2.268" height="23.86"/>
					<rect x="119.027" y="272.446" style="fill:#3E7084;" width="0.778" height="23.86"/>
				</g>
				<g>
					<rect x="123.05" y="272.446" style="fill:#579BAA;" width="2.267" height="23.86"/>
					<rect x="123.05" y="272.446" style="fill:#3E7084;" width="0.778" height="23.86"/>
				</g>
				<g>
					<rect x="127.073" y="272.446" style="fill:#579BAA;" width="2.267" height="23.86"/>
					<rect x="127.073" y="272.446" style="fill:#3E7084;" width="0.778" height="23.86"/>
				</g>
				<g>
					<rect x="131.095" y="272.446" style="fill:#579BAA;" width="2.267" height="23.86"/>
					<rect x="131.095" y="272.446" style="fill:#3E7084;" width="0.778" height="23.86"/>
				</g>
				<g>
					<rect x="135.117" y="272.446" style="fill:#579BAA;" width="2.268" height="23.86"/>
					<rect x="135.117" y="272.446" style="fill:#3E7084;" width="0.778" height="23.86"/>
				</g>
				<g>
					<rect x="139.14" y="272.446" style="fill:#579BAA;" width="2.268" height="23.86"/>
					<polyline style="fill:#3E7084;" points="139.14,292.405 139.14,272.446 139.918,272.446 139.918,296.306 139.14,296.306 
						139.14,292.405 					"/>
				</g>
				<g>
					<rect x="143.163" y="272.446" style="fill:#579BAA;" width="2.268" height="23.86"/>
					<rect x="143.163" y="272.446" style="fill:#3E7084;" width="0.778" height="23.86"/>
				</g>
				<g>
					<rect x="147.185" y="272.446" style="fill:#579BAA;" width="2.267" height="23.86"/>
					<rect x="147.185" y="272.446" style="fill:#3E7084;" width="0.778" height="23.86"/>
				</g>
			</g>
		</g>
		<g>
			<rect x="143.547" y="297.298" style="fill:#E71C2E;" width="21.206" height="26.33"/>
			
				<rect x="97.065" y="297.298" transform="matrix(-1 -1.224647e-16 1.224647e-16 -1 240.6119 620.9253)" style="fill:#AD1E58;" width="46.483" height="26.33"/>
			<g>
				<g>
					<rect x="98.822" y="298.776" style="fill:#841849;" width="2.267" height="23.86"/>
					<rect x="98.822" y="298.776" style="fill:#5B1D3C;" width="0.778" height="23.86"/>
				</g>
				<g>
					<rect x="102.844" y="298.776" style="fill:#841849;" width="2.267" height="23.86"/>
					<rect x="102.844" y="298.776" style="fill:#5B1D3C;" width="0.778" height="23.86"/>
				</g>
				<g>
					<rect x="106.867" y="298.776" style="fill:#841849;" width="2.267" height="23.86"/>
					<rect x="106.867" y="298.776" style="fill:#5B1D3C;" width="0.778" height="23.86"/>
				</g>
				<g>
					<rect x="110.889" y="298.776" style="fill:#841849;" width="2.268" height="23.86"/>
					<rect x="110.889" y="298.776" style="fill:#5B1D3C;" width="0.778" height="23.86"/>
				</g>
				<g>
					<rect x="114.912" y="298.776" style="fill:#841849;" width="2.267" height="23.86"/>
					<rect x="114.912" y="298.776" style="fill:#5B1D3C;" width="0.778" height="23.86"/>
				</g>
				<g>
					<rect x="118.934" y="298.776" style="fill:#841849;" width="2.267" height="23.86"/>
					<rect x="118.934" y="298.776" style="fill:#5B1D3C;" width="0.778" height="23.86"/>
				</g>
				<g>
					<rect x="122.957" y="298.776" style="fill:#841849;" width="2.267" height="23.86"/>
					<rect x="122.957" y="298.776" style="fill:#5B1D3C;" width="0.778" height="23.86"/>
				</g>
				<g>
					<rect x="126.979" y="298.776" style="fill:#841849;" width="2.268" height="23.86"/>
					<rect x="126.979" y="298.776" style="fill:#5B1D3C;" width="0.778" height="23.86"/>
				</g>
				<g>
					<rect x="131.002" y="298.776" style="fill:#841849;" width="2.268" height="23.86"/>
					<polyline style="fill:#5B1D3C;" points="131.002,318.735 131.002,298.776 131.78,298.776 131.78,322.636 131.002,322.636 
						131.002,318.735 					"/>
				</g>
				<g>
					<rect x="135.025" y="298.776" style="fill:#841849;" width="2.267" height="23.86"/>
					<rect x="135.025" y="298.776" style="fill:#5B1D3C;" width="0.778" height="23.86"/>
				</g>
				<g>
					<rect x="139.047" y="298.776" style="fill:#841849;" width="2.267" height="23.86"/>
					<rect x="139.047" y="298.776" style="fill:#5B1D3C;" width="0.778" height="23.86"/>
				</g>
			</g>
		</g>
		<g>
			
				<line style="fill:none;stroke:#1E3044;stroke-width:0.5;stroke-miterlimit:10;" x1="646.477" y1="325.953" x2="646.477" y2="282.19"/>
			<polyline style="fill:none;stroke:#1E3044;stroke-width:0.5;stroke-miterlimit:10;" points="656.551,324.645 646.477,282.19 
				636.847,324.645 			"/>
		</g>
		<g>
			<g>
				<polyline style="fill:none;stroke:#1E3044;stroke-miterlimit:10;" points="488.471,198.223 511.087,151.004 601.951,213.471 
									"/>
				<polyline style="fill:none;stroke:#1E3044;stroke-miterlimit:10;" points="507.203,196.154 511.087,151.004 565.996,213.471 
									"/>
			</g>
			<g>
				<g>
					<rect x="480.902" y="200.464" style="fill:#FF8B0D;" width="2.885" height="123.164"/>
					<rect x="483.787" y="200.464" style="fill:#ECB220;" width="2.885" height="123.164"/>
				</g>
				<g>
					<rect x="498.316" y="200.464" style="fill:#FF8B0D;" width="2.885" height="123.164"/>
					<rect x="501.201" y="200.464" style="fill:#ECB220;" width="2.885" height="123.164"/>
				</g>
			</g>
			<g>
				<g>
					<rect x="519.33" y="204.747" style="fill:#FF8B0D;" width="2.885" height="118.881"/>
					<rect x="522.215" y="204.747" style="fill:#ECB220;" width="2.885" height="118.881"/>
				</g>
				<g>
					<rect x="536.744" y="204.747" style="fill:#FF8B0D;" width="2.885" height="118.881"/>
					<rect x="539.628" y="204.747" style="fill:#ECB220;" width="2.885" height="118.881"/>
				</g>
			</g>
			<g>
				<rect x="472.53" y="194.27" style="fill:#ECB220;" width="42.109" height="7.907"/>
				<rect x="472.53" y="194.27" style="fill:#FF8B0D;" width="31.882" height="7.907"/>
			</g>
			<g>
				<rect x="511.424" y="203.529" style="fill:#ECB220;" width="38.517" height="3.953"/>
				<rect x="511.424" y="203.529" style="fill:#FF8B0D;" width="31.882" height="3.953"/>
			</g>
			<g>
				<rect x="478.917" y="272.51" style="fill:#ECB220;" width="27.156" height="3.953"/>
				<rect x="478.917" y="272.51" style="fill:#FF8B0D;" width="22.478" height="3.953"/>
			</g>
			<g>
				<rect x="517.105" y="272.51" style="fill:#ECB220;" width="27.156" height="3.953"/>
				<rect x="517.105" y="272.51" style="fill:#FF8B0D;" width="22.478" height="3.953"/>
			</g>
			<g>
				<line style="fill:none;stroke:#1E3044;stroke-miterlimit:10;" x1="570.109" y1="228.872" x2="570.109" y2="213.471"/>
				<line style="fill:none;stroke:#1E3044;stroke-miterlimit:10;" x1="583.909" y1="228.872" x2="583.909" y2="213.471"/>
				<line style="fill:none;stroke:#1E3044;stroke-miterlimit:10;" x1="611.057" y1="228.872" x2="611.057" y2="213.471"/>
				<line style="fill:none;stroke:#1E3044;stroke-miterlimit:10;" x1="624.857" y1="228.872" x2="624.857" y2="213.471"/>
				<g>
					<g>
						<rect x="568.011" y="226.896" style="fill:#ECB220;" width="5.071" height="3.953"/>
						<rect x="568.011" y="226.896" style="fill:#FF8B0D;" width="4.197" height="3.953"/>
					</g>
					<g>
						<rect x="581.373" y="226.896" style="fill:#ECB220;" width="5.071" height="3.953"/>
						<rect x="581.373" y="226.896" style="fill:#FF8B0D;" width="4.197" height="3.953"/>
					</g>
				</g>
				<g>
					<g>
						<rect x="608.522" y="226.896" style="fill:#ECB220;" width="5.071" height="3.953"/>
						<rect x="608.522" y="226.896" style="fill:#FF8B0D;" width="4.197" height="3.953"/>
					</g>
					<g>
						<rect x="621.884" y="226.896" style="fill:#ECB220;" width="5.071" height="3.953"/>
						<rect x="621.884" y="226.896" style="fill:#FF8B0D;" width="4.197" height="3.953"/>
					</g>
				</g>
				<g>
					<rect x="565.996" y="228.375" style="fill:#ECB220;" width="62.758" height="0.995"/>
					<rect x="565.996" y="228.375" style="fill:#FF8B0D;" width="57.782" height="0.995"/>
				</g>
			</g>
			<rect x="459.355" y="211.23" style="fill:#ECB220;" width="195.057" height="4.481"/>
			<rect x="459.355" y="211.23" style="fill:#FF8B0D;" width="175.775" height="4.481"/>
			<g>
				
					<rect x="480.832" y="221.505" transform="matrix(0.866 -0.5 0.5 0.866 -45.252 275.4871)" style="fill:#FF8B0D;" width="21.199" height="1.357"/>
				
					<rect x="480.832" y="234.081" transform="matrix(0.866 -0.5 0.5 0.866 -51.5386 277.1927)" style="fill:#FF8B0D;" width="21.199" height="1.357"/>
				
					<rect x="480.831" y="246.658" transform="matrix(0.866 -0.5 0.5 0.866 -57.8274 278.8773)" style="fill:#FF8B0D;" width="21.199" height="1.357"/>
				
					<rect x="480.832" y="259.234" transform="matrix(0.866 -0.5 0.5 0.866 -64.1168 280.542)" style="fill:#FF8B0D;" width="21.199" height="1.357"/>
				
					<rect x="480.832" y="271.811" transform="matrix(0.866 -0.5 0.5 0.866 -70.4051 282.227)" style="fill:#FF8B0D;" width="21.199" height="1.357"/>
				
					<rect x="480.832" y="284.387" transform="matrix(0.866 -0.5 0.5 0.866 -76.6934 283.912)" style="fill:#FF8B0D;" width="21.199" height="1.357"/>
				
					<rect x="480.832" y="296.963" transform="matrix(0.866 -0.5 0.5 0.866 -82.9817 285.597)" style="fill:#FF8B0D;" width="21.199" height="1.357"/>
				
					<rect x="480.832" y="309.54" transform="matrix(0.866 -0.5 0.5 0.866 -89.2708 287.3033)" style="fill:#FF8B0D;" width="21.199" height="1.357"/>
			</g>
			<g>
				
					<rect x="518.62" y="221.505" transform="matrix(0.866 -0.5 0.5 0.866 -40.1891 294.3817)" style="fill:#FF8B0D;" width="21.199" height="1.357"/>
				
					<rect x="518.62" y="234.081" transform="matrix(0.866 -0.5 0.5 0.866 -46.4753 296.0857)" style="fill:#FF8B0D;" width="21.199" height="1.357"/>
				
					<rect x="518.62" y="246.658" transform="matrix(0.866 -0.5 0.5 0.866 -52.764 297.7702)" style="fill:#FF8B0D;" width="21.199" height="1.357"/>
				
					<rect x="518.62" y="259.234" transform="matrix(0.866 -0.5 0.5 0.866 -59.0541 299.4337)" style="fill:#FF8B0D;" width="21.199" height="1.357"/>
				
					<rect x="518.62" y="271.811" transform="matrix(0.866 -0.5 0.5 0.866 -65.3424 301.1186)" style="fill:#FF8B0D;" width="21.199" height="1.357"/>
				
					<rect x="518.62" y="284.387" transform="matrix(0.866 -0.5 0.5 0.866 -71.6306 302.8036)" style="fill:#FF8B0D;" width="21.199" height="1.357"/>
				
					<rect x="518.62" y="296.963" transform="matrix(0.866 -0.5 0.5 0.866 -77.9188 304.4885)" style="fill:#FF8B0D;" width="21.199" height="1.357"/>
				
					<rect x="518.62" y="309.54" transform="matrix(0.866 -0.5 0.5 0.866 -84.2072 306.196)" style="fill:#FF8B0D;" width="21.199" height="1.357"/>
			</g>
		</g>
		<g>
			<rect x="155.368" y="179.447" style="fill:#ECB220;" width="124.527" height="24.442"/>
			<rect x="155.368" y="179.447" style="fill:#FF8B0D;" width="33.356" height="24.442"/>
			<rect x="144.999" y="223.053" style="fill:#ECB220;" width="145.264" height="100.575"/>
			<rect x="144.999" y="223.053" style="fill:#FF8B0D;" width="145.264" height="1.903"/>
			<polygon style="fill:#ECB220;" points="311.618,203.889 123.644,203.889 126.213,223.053 309.049,223.053 			"/>
			<polygon style="fill:#FF8B0D;" points="175.188,203.889 123.644,203.889 126.213,223.053 175.188,223.053 			"/>
			<rect x="144.999" y="223.053" style="fill:#FF8B0D;" width="41.721" height="100.575"/>
			<g>
				<rect x="148.227" y="248.626" style="fill:#DD6400;" width="33.053" height="2.747"/>
				<rect x="160.044" y="232.63" style="fill:#DD6400;" width="9.419" height="17.613"/>
				
					<rect x="157.659" y="238.44" transform="matrix(-1.836970e-16 1 -1 -1.836970e-16 406.1901 76.6836)" style="fill:#19283B;" width="14.188" height="5.994"/>
			</g>
			<g>
				<rect x="148.227" y="276.023" style="fill:#DD6400;" width="33.053" height="2.747"/>
				<rect x="160.044" y="260.027" style="fill:#DD6400;" width="9.419" height="17.613"/>
				
					<rect x="157.659" y="265.837" transform="matrix(-1.836970e-16 1 -1 -1.836970e-16 433.5869 104.0803)" style="fill:#19283B;" width="14.188" height="5.994"/>
			</g>
			<g>
				<rect x="148.227" y="303.419" style="fill:#DD6400;" width="33.053" height="2.747"/>
				<rect x="160.044" y="287.424" style="fill:#DD6400;" width="9.419" height="17.613"/>
				
					<rect x="157.659" y="293.233" transform="matrix(-1.836970e-16 1 -1 -1.836970e-16 460.9836 131.4771)" style="fill:#19283B;" width="14.188" height="5.994"/>
			</g>
			<g>
				<g>
					<rect x="193.933" y="229.796" style="fill:#FF8B0D;" width="12.218" height="14.295"/>
					
						<rect x="194.544" y="232.484" transform="matrix(-1.836970e-16 1 -1 -1.836970e-16 436.9857 36.9013)" style="fill:#98D3E5;" width="10.997" height="8.919"/>
					
						<rect x="198.164" y="236.103" transform="matrix(-1.836970e-16 1 -1 -1.836970e-16 440.6054 33.2816)" style="fill:#579BAA;" width="10.997" height="1.68"/>
				</g>
				<g>
					<rect x="213.482" y="229.796" style="fill:#FF8B0D;" width="12.218" height="14.295"/>
					
						<rect x="214.093" y="232.484" transform="matrix(-1.836970e-16 1 -1 -1.836970e-16 456.535 17.352)" style="fill:#98D3E5;" width="10.997" height="8.919"/>
					
						<rect x="217.713" y="236.103" transform="matrix(-1.836970e-16 1 -1 -1.836970e-16 460.1547 13.7323)" style="fill:#579BAA;" width="10.997" height="1.68"/>
				</g>
				<g>
					<rect x="233.032" y="229.796" style="fill:#FF8B0D;" width="12.218" height="14.295"/>
					
						<rect x="233.642" y="232.484" transform="matrix(-1.836970e-16 1 -1 -1.836970e-16 476.0842 -2.1972)" style="fill:#98D3E5;" width="10.997" height="8.919"/>
					
						<rect x="237.262" y="236.104" transform="matrix(-1.836970e-16 1 -1 -1.836970e-16 479.7039 -5.8169)" style="fill:#579BAA;" width="10.997" height="1.68"/>
				</g>
				<g>
					<rect x="252.581" y="229.796" style="fill:#FF8B0D;" width="12.218" height="14.295"/>
					
						<rect x="253.192" y="232.484" transform="matrix(-1.836970e-16 1 -1 -1.836970e-16 495.6335 -21.7465)" style="fill:#98D3E5;" width="10.997" height="8.92"/>
					
						<rect x="256.811" y="236.103" transform="matrix(-1.836970e-16 1 -1 -1.836970e-16 499.2531 -25.3662)" style="fill:#579BAA;" width="10.997" height="1.68"/>
				</g>
				<g>
					<rect x="272.13" y="229.796" style="fill:#FF8B0D;" width="12.218" height="14.295"/>
					
						<rect x="272.741" y="232.484" transform="matrix(-1.836970e-16 1 -1 -1.836970e-16 515.1827 -41.2957)" style="fill:#98D3E5;" width="10.997" height="8.919"/>
					
						<rect x="276.361" y="236.103" transform="matrix(-1.836970e-16 1 -1 -1.836970e-16 518.8024 -44.9154)" style="fill:#579BAA;" width="10.997" height="1.68"/>
				</g>
			</g>
			<g>
				<g>
					<rect x="193.933" y="255.103" style="fill:#FF8B0D;" width="12.218" height="14.295"/>
					
						<rect x="194.544" y="257.791" transform="matrix(-1.836970e-16 1 -1 -1.836970e-16 462.2931 62.2087)" style="fill:#98D3E5;" width="10.997" height="8.919"/>
					
						<rect x="198.164" y="261.411" transform="matrix(-1.836970e-16 1 -1 -1.836970e-16 465.9128 58.589)" style="fill:#579BAA;" width="10.997" height="1.68"/>
				</g>
				<g>
					<rect x="213.482" y="255.103" style="fill:#FF8B0D;" width="12.218" height="14.295"/>
					
						<rect x="214.093" y="257.791" transform="matrix(-1.836970e-16 1 -1 -1.836970e-16 481.8424 42.6594)" style="fill:#98D3E5;" width="10.997" height="8.919"/>
					
						<rect x="217.713" y="261.411" transform="matrix(-1.836970e-16 1 -1 -1.836970e-16 485.4621 39.0397)" style="fill:#579BAA;" width="10.997" height="1.68"/>
				</g>
				<g>
					<rect x="233.032" y="255.103" style="fill:#FF8B0D;" width="12.218" height="14.295"/>
					
						<rect x="233.642" y="257.791" transform="matrix(-1.836970e-16 1 -1 -1.836970e-16 501.3916 23.1102)" style="fill:#98D3E5;" width="10.997" height="8.919"/>
					
						<rect x="237.262" y="261.411" transform="matrix(-1.836970e-16 1 -1 -1.836970e-16 505.0113 19.4905)" style="fill:#579BAA;" width="10.997" height="1.68"/>
				</g>
				<g>
					<rect x="252.581" y="255.103" style="fill:#FF8B0D;" width="12.218" height="14.295"/>
					
						<rect x="253.192" y="257.791" transform="matrix(-1.836970e-16 1 -1 -1.836970e-16 520.9409 3.5609)" style="fill:#98D3E5;" width="10.997" height="8.92"/>
					
						<rect x="256.811" y="261.411" transform="matrix(-1.836970e-16 1 -1 -1.836970e-16 524.5605 -0.0588)" style="fill:#579BAA;" width="10.997" height="1.68"/>
				</g>
				<g>
					<rect x="272.13" y="255.103" style="fill:#FF8B0D;" width="12.218" height="14.295"/>
					
						<rect x="272.741" y="257.791" transform="matrix(-1.836970e-16 1 -1 -1.836970e-16 540.4901 -15.9883)" style="fill:#98D3E5;" width="10.997" height="8.919"/>
					
						<rect x="276.361" y="261.411" transform="matrix(-1.836970e-16 1 -1 -1.836970e-16 544.1097 -19.608)" style="fill:#579BAA;" width="10.997" height="1.68"/>
				</g>
			</g>
			<g>
				<g>
					<rect x="193.933" y="280.41" style="fill:#FF8B0D;" width="12.218" height="14.295"/>
					
						<rect x="194.544" y="283.099" transform="matrix(-1.836970e-16 1 -1 -1.836970e-16 487.6005 87.5161)" style="fill:#98D3E5;" width="10.997" height="8.919"/>
					
						<rect x="198.164" y="286.718" transform="matrix(-1.836970e-16 1 -1 -1.836970e-16 491.2202 83.8964)" style="fill:#579BAA;" width="10.997" height="1.68"/>
				</g>
				<g>
					<rect x="213.482" y="280.41" style="fill:#FF8B0D;" width="12.218" height="14.295"/>
					
						<rect x="214.093" y="283.099" transform="matrix(-1.836970e-16 1 -1 -1.836970e-16 507.1498 67.9668)" style="fill:#98D3E5;" width="10.997" height="8.919"/>
					
						<rect x="217.713" y="286.718" transform="matrix(-1.836970e-16 1 -1 -1.836970e-16 510.7695 64.3471)" style="fill:#579BAA;" width="10.997" height="1.68"/>
				</g>
				<g>
					<rect x="233.032" y="280.41" style="fill:#FF8B0D;" width="12.218" height="14.295"/>
					
						<rect x="233.642" y="283.099" transform="matrix(-1.836970e-16 1 -1 -1.836970e-16 526.699 48.4176)" style="fill:#98D3E5;" width="10.997" height="8.919"/>
					
						<rect x="237.262" y="286.718" transform="matrix(-1.836970e-16 1 -1 -1.836970e-16 530.3187 44.7979)" style="fill:#579BAA;" width="10.997" height="1.68"/>
				</g>
				<g>
					<rect x="252.581" y="280.41" style="fill:#FF8B0D;" width="12.218" height="14.295"/>
					
						<rect x="253.192" y="283.099" transform="matrix(-1.836970e-16 1 -1 -1.836970e-16 546.2482 28.8683)" style="fill:#98D3E5;" width="10.997" height="8.92"/>
					
						<rect x="256.811" y="286.718" transform="matrix(-1.836970e-16 1 -1 -1.836970e-16 549.8679 25.2486)" style="fill:#579BAA;" width="10.997" height="1.68"/>
				</g>
				<g>
					<rect x="272.13" y="280.41" style="fill:#FF8B0D;" width="12.218" height="14.295"/>
					
						<rect x="272.741" y="283.099" transform="matrix(-1.836970e-16 1 -1 -1.836970e-16 565.7975 9.3191)" style="fill:#98D3E5;" width="10.997" height="8.919"/>
					
						<rect x="276.361" y="286.718" transform="matrix(-1.836970e-16 1 -1 -1.836970e-16 569.4171 5.6994)" style="fill:#579BAA;" width="10.997" height="1.68"/>
				</g>
			</g>
			<g>
				<g>
					<rect x="193.933" y="305.718" style="fill:#FF8B0D;" width="12.218" height="14.295"/>
					
						<rect x="194.544" y="308.406" transform="matrix(-1.836970e-16 1 -1 -1.836970e-16 512.9079 112.8234)" style="fill:#98D3E5;" width="10.997" height="8.919"/>
					
						<rect x="198.164" y="312.026" transform="matrix(-1.836970e-16 1 -1 -1.836970e-16 516.5276 109.2037)" style="fill:#579BAA;" width="10.997" height="1.68"/>
				</g>
				<g>
					<rect x="213.482" y="305.718" style="fill:#FF8B0D;" width="12.218" height="14.295"/>
					
						<rect x="214.093" y="308.406" transform="matrix(-1.836970e-16 1 -1 -1.836970e-16 532.4572 93.2742)" style="fill:#98D3E5;" width="10.997" height="8.919"/>
					
						<rect x="217.713" y="312.026" transform="matrix(-1.836970e-16 1 -1 -1.836970e-16 536.0768 89.6545)" style="fill:#579BAA;" width="10.997" height="1.68"/>
				</g>
				<g>
					<rect x="233.032" y="305.718" style="fill:#FF8B0D;" width="12.218" height="14.295"/>
					
						<rect x="233.642" y="308.406" transform="matrix(-1.836970e-16 1 -1 -1.836970e-16 552.0063 73.7249)" style="fill:#98D3E5;" width="10.997" height="8.919"/>
					
						<rect x="237.262" y="312.026" transform="matrix(-1.836970e-16 1 -1 -1.836970e-16 555.626 70.1052)" style="fill:#579BAA;" width="10.997" height="1.68"/>
				</g>
				<g>
					<rect x="252.581" y="305.718" style="fill:#FF8B0D;" width="12.218" height="14.295"/>
					
						<rect x="253.192" y="308.406" transform="matrix(-1.836970e-16 1 -1 -1.836970e-16 571.5556 54.1757)" style="fill:#98D3E5;" width="10.997" height="8.92"/>
					
						<rect x="256.811" y="312.026" transform="matrix(-1.836970e-16 1 -1 -1.836970e-16 575.1753 50.556)" style="fill:#579BAA;" width="10.997" height="1.68"/>
				</g>
				<g>
					<rect x="272.13" y="305.718" style="fill:#FF8B0D;" width="12.218" height="14.295"/>
					
						<rect x="272.741" y="308.406" transform="matrix(-1.836970e-16 1 -1 -1.836970e-16 591.1049 34.6264)" style="fill:#98D3E5;" width="10.997" height="8.919"/>
					
						<rect x="276.361" y="312.026" transform="matrix(-1.836970e-16 1 -1 -1.836970e-16 594.7245 31.0068)" style="fill:#579BAA;" width="10.997" height="1.68"/>
				</g>
			</g>
			<g>
				<g>
					<rect x="216.178" y="163.506" style="fill:#304D63;" width="4.169" height="15.941"/>
					<rect x="216.178" y="163.506" style="fill:#19283B;" width="2.084" height="15.941"/>
				</g>
				
					<rect x="217.22" y="152.664" transform="matrix(-1.836970e-16 1 -1 -1.836970e-16 382.6974 -53.8267)" style="fill:#304D63;" width="2.085" height="23.544"/>
			</g>
			<g>
				
					<rect x="224.122" y="148.116" transform="matrix(-1.836970e-16 1 -1 -1.836970e-16 426.2983 -42.9626)" style="fill:#FF8B0D;" width="21.017" height="87.103"/>
				
					<rect x="225.834" y="149.829" transform="matrix(-1.836970e-16 1 -1 -1.836970e-16 426.2982 -42.9625)" style="fill:#98D3E5;" width="17.592" height="83.678"/>
				<g>
					<polygon style="fill:#C0F3FF;" points="276.469,186.089 276.469,182.872 274.5,182.872 256.908,200.464 262.095,200.464 					
						"/>
					<polygon style="fill:#C0F3FF;" points="203.557,182.872 192.791,193.638 192.791,200.464 204.313,200.464 221.905,182.872 
											"/>
					<polygon style="fill:#C0F3FF;" points="231.736,182.872 226.549,182.872 208.957,200.464 214.144,200.464 					"/>
					<polygon style="fill:#C0F3FF;" points="261.166,182.872 252.962,182.872 235.371,200.464 243.574,200.464 					"/>
					<polygon style="fill:#C0F3FF;" points="264.718,182.872 263.618,182.872 246.026,200.464 247.126,200.464 					"/>
				</g>
				
					<rect x="266.983" y="190.977" transform="matrix(-1.836970e-16 1 -1 -1.836970e-16 467.4466 -84.1108)" style="fill:#579BAA;" width="17.592" height="1.381"/>
				<rect x="206.49" y="181.727" style="fill:#FF8B0D;" width="1.727" height="19.389"/>
				<rect x="224.046" y="181.727" style="fill:#FF8B0D;" width="1.727" height="19.389"/>
				<rect x="241.601" y="181.727" style="fill:#FF8B0D;" width="1.727" height="19.389"/>
				<rect x="259.157" y="181.727" style="fill:#FF8B0D;" width="1.727" height="19.389"/>
			</g>
		</g>
		<g>
			<rect x="306.131" y="297.298" style="fill:#ECB220;" width="21.206" height="26.33"/>
			
				<rect x="259.648" y="297.298" transform="matrix(-1 -1.224647e-16 1.224647e-16 -1 565.7791 620.9253)" style="fill:#FF8B0D;" width="46.483" height="26.33"/>
			<g>
				<g>
					<rect x="261.405" y="298.776" style="fill:#DD6400;" width="2.268" height="23.86"/>
					<rect x="261.405" y="298.776" style="fill:#B54F02;" width="0.778" height="23.86"/>
				</g>
				<g>
					<rect x="265.428" y="298.776" style="fill:#DD6400;" width="2.267" height="23.86"/>
					<rect x="265.428" y="298.776" style="fill:#B54F02;" width="0.778" height="23.86"/>
				</g>
				<g>
					<rect x="269.451" y="298.776" style="fill:#DD6400;" width="2.267" height="23.86"/>
					<rect x="269.451" y="298.776" style="fill:#B54F02;" width="0.778" height="23.86"/>
				</g>
				<g>
					<rect x="273.473" y="298.776" style="fill:#DD6400;" width="2.267" height="23.86"/>
					<rect x="273.473" y="298.776" style="fill:#B54F02;" width="0.778" height="23.86"/>
				</g>
				<g>
					<rect x="277.496" y="298.776" style="fill:#DD6400;" width="2.267" height="23.86"/>
					<rect x="277.496" y="298.776" style="fill:#B54F02;" width="0.778" height="23.86"/>
				</g>
				<g>
					<rect x="281.518" y="298.776" style="fill:#DD6400;" width="2.268" height="23.86"/>
					<rect x="281.518" y="298.776" style="fill:#B54F02;" width="0.778" height="23.86"/>
				</g>
				<g>
					<rect x="285.54" y="298.776" style="fill:#DD6400;" width="2.268" height="23.86"/>
					<rect x="285.54" y="298.776" style="fill:#B54F02;" width="0.778" height="23.86"/>
				</g>
				<g>
					<rect x="289.563" y="298.776" style="fill:#DD6400;" width="2.267" height="23.86"/>
					<rect x="289.563" y="298.776" style="fill:#B54F02;" width="0.778" height="23.86"/>
				</g>
				<g>
					<rect x="293.586" y="298.776" style="fill:#DD6400;" width="2.267" height="23.86"/>
					<polyline style="fill:#B54F02;" points="293.586,318.735 293.586,298.776 294.364,298.776 294.364,322.636 293.586,322.636 
						293.586,318.735 					"/>
				</g>
				<g>
					<rect x="297.608" y="298.776" style="fill:#DD6400;" width="2.267" height="23.86"/>
					<rect x="297.608" y="298.776" style="fill:#B54F02;" width="0.778" height="23.86"/>
				</g>
				<g>
					<rect x="301.631" y="298.776" style="fill:#DD6400;" width="2.268" height="23.86"/>
					<rect x="301.631" y="298.776" style="fill:#B54F02;" width="0.778" height="23.86"/>
				</g>
			</g>
		</g>
		<g>
			<rect x="355.808" y="297.298" style="fill:#C0F3FF;" width="21.206" height="26.33"/>
			
				<rect x="309.325" y="297.298" transform="matrix(-1 -1.224647e-16 1.224647e-16 -1 665.1332 620.9253)" style="fill:#98D3E5;" width="46.483" height="26.33"/>
			<g>
				<g>
					<rect x="311.082" y="298.776" style="fill:#579BAA;" width="2.267" height="23.86"/>
					<rect x="311.082" y="298.776" style="fill:#3E7084;" width="0.778" height="23.86"/>
				</g>
				<g>
					<rect x="315.105" y="298.776" style="fill:#579BAA;" width="2.267" height="23.86"/>
					<rect x="315.105" y="298.776" style="fill:#3E7084;" width="0.778" height="23.86"/>
				</g>
				<g>
					<rect x="319.128" y="298.776" style="fill:#579BAA;" width="2.267" height="23.86"/>
					<rect x="319.128" y="298.776" style="fill:#3E7084;" width="0.778" height="23.86"/>
				</g>
				<g>
					<rect x="323.15" y="298.776" style="fill:#579BAA;" width="2.267" height="23.86"/>
					<rect x="323.15" y="298.776" style="fill:#3E7084;" width="0.778" height="23.86"/>
				</g>
				<g>
					<rect x="327.172" y="298.776" style="fill:#579BAA;" width="2.268" height="23.86"/>
					<rect x="327.172" y="298.776" style="fill:#3E7084;" width="0.778" height="23.86"/>
				</g>
				<g>
					<rect x="331.195" y="298.776" style="fill:#579BAA;" width="2.267" height="23.86"/>
					<rect x="331.195" y="298.776" style="fill:#3E7084;" width="0.778" height="23.86"/>
				</g>
				<g>
					<rect x="335.218" y="298.776" style="fill:#579BAA;" width="2.267" height="23.86"/>
					<rect x="335.218" y="298.776" style="fill:#3E7084;" width="0.778" height="23.86"/>
				</g>
				<g>
					<rect x="339.24" y="298.776" style="fill:#579BAA;" width="2.267" height="23.86"/>
					<rect x="339.24" y="298.776" style="fill:#3E7084;" width="0.778" height="23.86"/>
				</g>
				<g>
					<rect x="343.263" y="298.776" style="fill:#579BAA;" width="2.268" height="23.86"/>
					<polyline style="fill:#3E7084;" points="343.263,318.735 343.263,298.776 344.041,298.776 344.041,322.636 343.263,322.636 
						343.263,318.735 					"/>
				</g>
				<g>
					<rect x="347.285" y="298.776" style="fill:#579BAA;" width="2.268" height="23.86"/>
					<rect x="347.285" y="298.776" style="fill:#3E7084;" width="0.778" height="23.86"/>
				</g>
				<g>
					<rect x="351.308" y="298.776" style="fill:#579BAA;" width="2.267" height="23.86"/>
					<rect x="351.308" y="298.776" style="fill:#3E7084;" width="0.778" height="23.86"/>
				</g>
			</g>
		</g>
		<g>
			<rect x="404.901" y="297.298" style="fill:#E71C2E;" width="21.206" height="26.33"/>
			
				<rect x="358.418" y="297.298" transform="matrix(-1 -1.224647e-16 1.224647e-16 -1 763.3192 620.9253)" style="fill:#AD1E58;" width="46.483" height="26.33"/>
			<g>
				<g>
					<rect x="360.176" y="298.776" style="fill:#841849;" width="2.267" height="23.86"/>
					<rect x="360.176" y="298.776" style="fill:#5B1D3C;" width="0.778" height="23.86"/>
				</g>
				<g>
					<rect x="364.198" y="298.776" style="fill:#841849;" width="2.267" height="23.86"/>
					<rect x="364.198" y="298.776" style="fill:#5B1D3C;" width="0.778" height="23.86"/>
				</g>
				<g>
					<rect x="368.22" y="298.776" style="fill:#841849;" width="2.267" height="23.86"/>
					<rect x="368.22" y="298.776" style="fill:#5B1D3C;" width="0.778" height="23.86"/>
				</g>
				<g>
					<rect x="372.243" y="298.776" style="fill:#841849;" width="2.267" height="23.86"/>
					<rect x="372.243" y="298.776" style="fill:#5B1D3C;" width="0.778" height="23.86"/>
				</g>
				<g>
					<rect x="376.266" y="298.776" style="fill:#841849;" width="2.268" height="23.86"/>
					<rect x="376.266" y="298.776" style="fill:#5B1D3C;" width="0.778" height="23.86"/>
				</g>
				<g>
					<rect x="380.288" y="298.776" style="fill:#841849;" width="2.267" height="23.86"/>
					<rect x="380.288" y="298.776" style="fill:#5B1D3C;" width="0.778" height="23.86"/>
				</g>
				<g>
					<rect x="384.311" y="298.776" style="fill:#841849;" width="2.267" height="23.86"/>
					<rect x="384.311" y="298.776" style="fill:#5B1D3C;" width="0.778" height="23.86"/>
				</g>
				<g>
					<rect x="388.333" y="298.776" style="fill:#841849;" width="2.267" height="23.86"/>
					<rect x="388.333" y="298.776" style="fill:#5B1D3C;" width="0.778" height="23.86"/>
				</g>
				<g>
					<rect x="392.356" y="298.776" style="fill:#841849;" width="2.268" height="23.86"/>
					<polyline style="fill:#5B1D3C;" points="392.356,318.735 392.356,298.776 393.134,298.776 393.134,322.636 392.356,322.636 
						392.356,318.735 					"/>
				</g>
				<g>
					<rect x="396.378" y="298.776" style="fill:#841849;" width="2.268" height="23.86"/>
					<rect x="396.378" y="298.776" style="fill:#5B1D3C;" width="0.778" height="23.86"/>
				</g>
				<g>
					<rect x="400.401" y="298.776" style="fill:#841849;" width="2.267" height="23.86"/>
					<rect x="400.401" y="298.776" style="fill:#5B1D3C;" width="0.778" height="23.86"/>
				</g>
			</g>
		</g>
		<g>
			<rect x="601.57" y="297.298" style="fill:#E71C2E;" width="21.206" height="26.33"/>
			
				<rect x="555.087" y="297.298" transform="matrix(-1 -1.224647e-16 1.224647e-16 -1 1156.6565 620.9253)" style="fill:#AD1E58;" width="46.483" height="26.33"/>
			<g>
				<g>
					<rect x="556.844" y="298.776" style="fill:#841849;" width="2.267" height="23.86"/>
					<rect x="556.844" y="298.776" style="fill:#5B1D3C;" width="0.778" height="23.86"/>
				</g>
				<g>
					<rect x="560.867" y="298.776" style="fill:#841849;" width="2.268" height="23.86"/>
					<rect x="560.867" y="298.776" style="fill:#5B1D3C;" width="0.778" height="23.86"/>
				</g>
				<g>
					<rect x="564.889" y="298.776" style="fill:#841849;" width="2.268" height="23.86"/>
					<rect x="564.889" y="298.776" style="fill:#5B1D3C;" width="0.778" height="23.86"/>
				</g>
				<g>
					<rect x="568.912" y="298.776" style="fill:#841849;" width="2.267" height="23.86"/>
					<rect x="568.912" y="298.776" style="fill:#5B1D3C;" width="0.778" height="23.86"/>
				</g>
				<g>
					<rect x="572.934" y="298.776" style="fill:#841849;" width="2.267" height="23.86"/>
					<rect x="572.934" y="298.776" style="fill:#5B1D3C;" width="0.778" height="23.86"/>
				</g>
				<g>
					<rect x="576.957" y="298.776" style="fill:#841849;" width="2.267" height="23.86"/>
					<rect x="576.957" y="298.776" style="fill:#5B1D3C;" width="0.778" height="23.86"/>
				</g>
				<g>
					<rect x="580.979" y="298.776" style="fill:#841849;" width="2.267" height="23.86"/>
					<rect x="580.979" y="298.776" style="fill:#5B1D3C;" width="0.778" height="23.86"/>
				</g>
				<g>
					<rect x="585.002" y="298.776" style="fill:#841849;" width="2.268" height="23.86"/>
					<rect x="585.002" y="298.776" style="fill:#5B1D3C;" width="0.778" height="23.86"/>
				</g>
				<g>
					<rect x="589.024" y="298.776" style="fill:#841849;" width="2.267" height="23.86"/>
					<polyline style="fill:#5B1D3C;" points="589.024,318.735 589.024,298.776 589.802,298.776 589.802,322.636 589.024,322.636 
						589.024,318.735 					"/>
				</g>
				<g>
					<rect x="593.047" y="298.776" style="fill:#841849;" width="2.267" height="23.86"/>
					<rect x="593.047" y="298.776" style="fill:#5B1D3C;" width="0.778" height="23.86"/>
				</g>
				<g>
					<rect x="597.069" y="298.776" style="fill:#841849;" width="2.267" height="23.86"/>
					<rect x="597.069" y="298.776" style="fill:#5B1D3C;" width="0.778" height="23.86"/>
				</g>
			</g>
		</g>
		<g>
			<rect x="454.062" y="297.298" style="fill:#ECB220;" width="21.206" height="26.33"/>
			
				<rect x="407.579" y="297.298" transform="matrix(-1 -1.224647e-16 1.224647e-16 -1 861.6405 620.9253)" style="fill:#FF8B0D;" width="46.483" height="26.33"/>
			<g>
				<g>
					<rect x="409.336" y="298.776" style="fill:#DD6400;" width="2.268" height="23.86"/>
					<rect x="409.336" y="298.776" style="fill:#B54F02;" width="0.778" height="23.86"/>
				</g>
				<g>
					<rect x="413.359" y="298.776" style="fill:#DD6400;" width="2.267" height="23.86"/>
					<rect x="413.359" y="298.776" style="fill:#B54F02;" width="0.778" height="23.86"/>
				</g>
				<g>
					<rect x="417.381" y="298.776" style="fill:#DD6400;" width="2.267" height="23.86"/>
					<rect x="417.381" y="298.776" style="fill:#B54F02;" width="0.778" height="23.86"/>
				</g>
				<g>
					<rect x="421.404" y="298.776" style="fill:#DD6400;" width="2.267" height="23.86"/>
					<rect x="421.404" y="298.776" style="fill:#B54F02;" width="0.778" height="23.86"/>
				</g>
				<g>
					<rect x="425.426" y="298.776" style="fill:#DD6400;" width="2.268" height="23.86"/>
					<rect x="425.426" y="298.776" style="fill:#B54F02;" width="0.778" height="23.86"/>
				</g>
				<g>
					<rect x="429.449" y="298.776" style="fill:#DD6400;" width="2.268" height="23.86"/>
					<rect x="429.449" y="298.776" style="fill:#B54F02;" width="0.778" height="23.86"/>
				</g>
				<g>
					<rect x="433.471" y="298.776" style="fill:#DD6400;" width="2.267" height="23.86"/>
					<rect x="433.471" y="298.776" style="fill:#B54F02;" width="0.778" height="23.86"/>
				</g>
				<g>
					<rect x="437.494" y="298.776" style="fill:#DD6400;" width="2.267" height="23.86"/>
					<rect x="437.494" y="298.776" style="fill:#B54F02;" width="0.778" height="23.86"/>
				</g>
				<g>
					<rect x="441.516" y="298.776" style="fill:#DD6400;" width="2.267" height="23.86"/>
					<polyline style="fill:#B54F02;" points="441.516,318.735 441.516,298.776 442.294,298.776 442.294,322.636 441.516,322.636 
						441.516,318.735 					"/>
				</g>
				<g>
					<rect x="445.539" y="298.776" style="fill:#DD6400;" width="2.267" height="23.86"/>
					<rect x="445.539" y="298.776" style="fill:#B54F02;" width="0.778" height="23.86"/>
				</g>
				<g>
					<rect x="449.561" y="298.776" style="fill:#DD6400;" width="2.268" height="23.86"/>
					<rect x="449.561" y="298.776" style="fill:#B54F02;" width="0.778" height="23.86"/>
				</g>
			</g>
		</g>
		<g>
			<rect x="360.293" y="244.638" style="fill:#ECB220;" width="21.206" height="26.33"/>
			
				<rect x="313.811" y="244.638" transform="matrix(-1 -1.224647e-16 1.224647e-16 -1 674.104 515.6058)" style="fill:#FF8B0D;" width="46.483" height="26.33"/>
			<g>
				<g>
					<rect x="315.568" y="246.116" style="fill:#DD6400;" width="2.267" height="23.86"/>
					<rect x="315.568" y="246.116" style="fill:#B54F02;" width="0.778" height="23.86"/>
				</g>
				<g>
					<rect x="319.59" y="246.116" style="fill:#DD6400;" width="2.268" height="23.86"/>
					<rect x="319.59" y="246.116" style="fill:#B54F02;" width="0.778" height="23.86"/>
				</g>
				<g>
					<rect x="323.613" y="246.116" style="fill:#DD6400;" width="2.267" height="23.86"/>
					<rect x="323.613" y="246.116" style="fill:#B54F02;" width="0.778" height="23.86"/>
				</g>
				<g>
					<rect x="327.635" y="246.116" style="fill:#DD6400;" width="2.268" height="23.86"/>
					<rect x="327.635" y="246.116" style="fill:#B54F02;" width="0.778" height="23.86"/>
				</g>
				<g>
					<rect x="331.658" y="246.116" style="fill:#DD6400;" width="2.268" height="23.86"/>
					<rect x="331.658" y="246.116" style="fill:#B54F02;" width="0.778" height="23.86"/>
				</g>
				<g>
					<rect x="335.681" y="246.116" style="fill:#DD6400;" width="2.267" height="23.86"/>
					<rect x="335.681" y="246.116" style="fill:#B54F02;" width="0.778" height="23.86"/>
				</g>
				<g>
					<rect x="339.703" y="246.116" style="fill:#DD6400;" width="2.267" height="23.86"/>
					<rect x="339.703" y="246.116" style="fill:#B54F02;" width="0.778" height="23.86"/>
				</g>
				<g>
					<rect x="343.725" y="246.116" style="fill:#DD6400;" width="2.267" height="23.86"/>
					<rect x="343.725" y="246.116" style="fill:#B54F02;" width="0.778" height="23.86"/>
				</g>
				<g>
					<rect x="347.748" y="246.116" style="fill:#DD6400;" width="2.267" height="23.86"/>
					<polyline style="fill:#B54F02;" points="347.748,266.075 347.748,246.116 348.526,246.116 348.526,269.976 347.748,269.976 
						347.748,266.075 					"/>
				</g>
				<g>
					<rect x="351.771" y="246.116" style="fill:#DD6400;" width="2.268" height="23.86"/>
					<rect x="351.771" y="246.116" style="fill:#B54F02;" width="0.778" height="23.86"/>
				</g>
				<g>
					<rect x="355.793" y="246.116" style="fill:#DD6400;" width="2.267" height="23.86"/>
					<rect x="355.793" y="246.116" style="fill:#B54F02;" width="0.778" height="23.86"/>
				</g>
			</g>
		</g>
		<g>
			<rect x="305.365" y="270.968" style="fill:#304D63;" width="21.206" height="26.33"/>
			
				<rect x="258.882" y="270.968" transform="matrix(-1 -1.224647e-16 1.224647e-16 -1 564.2467 568.2655)" style="fill:#253B4F;" width="46.483" height="26.33"/>
			<g>
				<g>
					<rect x="260.639" y="272.446" style="fill:#19283B;" width="2.268" height="23.86"/>
					<rect x="260.639" y="272.446" style="fill:#0B1723;" width="0.778" height="23.86"/>
				</g>
				<g>
					<rect x="264.662" y="272.446" style="fill:#19283B;" width="2.267" height="23.86"/>
					<rect x="264.662" y="272.446" style="fill:#0B1723;" width="0.778" height="23.86"/>
				</g>
				<g>
					<rect x="268.684" y="272.446" style="fill:#19283B;" width="2.267" height="23.86"/>
					<rect x="268.684" y="272.446" style="fill:#0B1723;" width="0.778" height="23.86"/>
				</g>
				<g>
					<rect x="272.707" y="272.446" style="fill:#19283B;" width="2.267" height="23.86"/>
					<rect x="272.707" y="272.446" style="fill:#0B1723;" width="0.778" height="23.86"/>
				</g>
				<g>
					<rect x="276.729" y="272.446" style="fill:#19283B;" width="2.268" height="23.86"/>
					<rect x="276.729" y="272.446" style="fill:#0B1723;" width="0.778" height="23.86"/>
				</g>
				<g>
					<rect x="280.752" y="272.446" style="fill:#19283B;" width="2.268" height="23.86"/>
					<rect x="280.752" y="272.446" style="fill:#0B1723;" width="0.778" height="23.86"/>
				</g>
				<g>
					<rect x="284.774" y="272.446" style="fill:#19283B;" width="2.267" height="23.86"/>
					<rect x="284.774" y="272.446" style="fill:#0B1723;" width="0.778" height="23.86"/>
				</g>
				<g>
					<rect x="288.797" y="272.446" style="fill:#19283B;" width="2.267" height="23.86"/>
					<rect x="288.797" y="272.446" style="fill:#0B1723;" width="0.778" height="23.86"/>
				</g>
				<g>
					<rect x="292.819" y="272.446" style="fill:#19283B;" width="2.267" height="23.86"/>
					<polyline style="fill:#0B1723;" points="292.819,292.405 292.819,272.446 293.598,272.446 293.598,296.306 292.819,296.306 
						292.819,292.405 					"/>
				</g>
				<g>
					<rect x="296.842" y="272.446" style="fill:#19283B;" width="2.268" height="23.86"/>
					<rect x="296.842" y="272.446" style="fill:#0B1723;" width="0.778" height="23.86"/>
				</g>
				<g>
					<rect x="300.865" y="272.446" style="fill:#19283B;" width="2.267" height="23.86"/>
					<rect x="300.865" y="272.446" style="fill:#0B1723;" width="0.778" height="23.86"/>
				</g>
			</g>
		</g>
		<g>
			<rect x="410.152" y="244.638" style="fill:#304D63;" width="21.206" height="26.33"/>
			
				<rect x="363.67" y="244.638" transform="matrix(-1 -1.224647e-16 1.224647e-16 -1 773.8223 515.6058)" style="fill:#253B4F;" width="46.483" height="26.33"/>
			<g>
				<g>
					<rect x="365.427" y="246.116" style="fill:#19283B;" width="2.268" height="23.86"/>
					<rect x="365.427" y="246.116" style="fill:#0B1723;" width="0.778" height="23.86"/>
				</g>
				<g>
					<rect x="369.45" y="246.116" style="fill:#19283B;" width="2.267" height="23.86"/>
					<rect x="369.45" y="246.116" style="fill:#0B1723;" width="0.778" height="23.86"/>
				</g>
				<g>
					<rect x="373.472" y="246.116" style="fill:#19283B;" width="2.267" height="23.86"/>
					<rect x="373.472" y="246.116" style="fill:#0B1723;" width="0.778" height="23.86"/>
				</g>
				<g>
					<rect x="377.495" y="246.116" style="fill:#19283B;" width="2.267" height="23.86"/>
					<rect x="377.495" y="246.116" style="fill:#0B1723;" width="0.778" height="23.86"/>
				</g>
				<g>
					<rect x="381.517" y="246.116" style="fill:#19283B;" width="2.268" height="23.86"/>
					<rect x="381.517" y="246.116" style="fill:#0B1723;" width="0.778" height="23.86"/>
				</g>
				<g>
					<rect x="385.54" y="246.116" style="fill:#19283B;" width="2.268" height="23.86"/>
					<rect x="385.54" y="246.116" style="fill:#0B1723;" width="0.778" height="23.86"/>
				</g>
				<g>
					<rect x="389.562" y="246.116" style="fill:#19283B;" width="2.267" height="23.86"/>
					<rect x="389.562" y="246.116" style="fill:#0B1723;" width="0.778" height="23.86"/>
				</g>
				<g>
					<rect x="393.585" y="246.116" style="fill:#19283B;" width="2.267" height="23.86"/>
					<rect x="393.585" y="246.116" style="fill:#0B1723;" width="0.778" height="23.86"/>
				</g>
				<g>
					<rect x="397.607" y="246.116" style="fill:#19283B;" width="2.267" height="23.86"/>
					<polyline style="fill:#0B1723;" points="397.607,266.075 397.607,246.116 398.385,246.116 398.385,269.976 397.607,269.976 
						397.607,266.075 					"/>
				</g>
				<g>
					<rect x="401.63" y="246.116" style="fill:#19283B;" width="2.267" height="23.86"/>
					<rect x="401.63" y="246.116" style="fill:#0B1723;" width="0.778" height="23.86"/>
				</g>
				<g>
					<rect x="405.652" y="246.116" style="fill:#19283B;" width="2.268" height="23.86"/>
					<rect x="405.652" y="246.116" style="fill:#0B1723;" width="0.778" height="23.86"/>
				</g>
			</g>
		</g>
		<g>
			<rect x="353.38" y="270.968" style="fill:#E71C2E;" width="21.206" height="26.33"/>
			
				<rect x="306.897" y="270.968" transform="matrix(-1 -1.224647e-16 1.224647e-16 -1 660.2769 568.2655)" style="fill:#AD1E58;" width="46.483" height="26.33"/>
			<g>
				<g>
					<rect x="308.654" y="272.446" style="fill:#841849;" width="2.268" height="23.86"/>
					<rect x="308.654" y="272.446" style="fill:#5B1D3C;" width="0.778" height="23.86"/>
				</g>
				<g>
					<rect x="312.677" y="272.446" style="fill:#841849;" width="2.267" height="23.86"/>
					<rect x="312.677" y="272.446" style="fill:#5B1D3C;" width="0.778" height="23.86"/>
				</g>
				<g>
					<rect x="316.699" y="272.446" style="fill:#841849;" width="2.268" height="23.86"/>
					<rect x="316.699" y="272.446" style="fill:#5B1D3C;" width="0.778" height="23.86"/>
				</g>
				<g>
					<rect x="320.722" y="272.446" style="fill:#841849;" width="2.267" height="23.86"/>
					<rect x="320.722" y="272.446" style="fill:#5B1D3C;" width="0.778" height="23.86"/>
				</g>
				<g>
					<rect x="324.744" y="272.446" style="fill:#841849;" width="2.268" height="23.86"/>
					<rect x="324.744" y="272.446" style="fill:#5B1D3C;" width="0.778" height="23.86"/>
				</g>
				<g>
					<rect x="328.767" y="272.446" style="fill:#841849;" width="2.268" height="23.86"/>
					<rect x="328.767" y="272.446" style="fill:#5B1D3C;" width="0.778" height="23.86"/>
				</g>
				<g>
					<rect x="332.789" y="272.446" style="fill:#841849;" width="2.267" height="23.86"/>
					<rect x="332.789" y="272.446" style="fill:#5B1D3C;" width="0.778" height="23.86"/>
				</g>
				<g>
					<rect x="336.812" y="272.446" style="fill:#841849;" width="2.267" height="23.86"/>
					<rect x="336.812" y="272.446" style="fill:#5B1D3C;" width="0.778" height="23.86"/>
				</g>
				<g>
					<rect x="340.835" y="272.446" style="fill:#841849;" width="2.267" height="23.86"/>
					<polyline style="fill:#5B1D3C;" points="340.835,292.405 340.835,272.446 341.613,272.446 341.613,296.306 340.835,296.306 
						340.835,292.405 					"/>
				</g>
				<g>
					<rect x="344.857" y="272.446" style="fill:#841849;" width="2.267" height="23.86"/>
					<rect x="344.857" y="272.446" style="fill:#5B1D3C;" width="0.778" height="23.86"/>
				</g>
				<g>
					<rect x="348.879" y="272.446" style="fill:#841849;" width="2.268" height="23.86"/>
					<rect x="348.879" y="272.446" style="fill:#5B1D3C;" width="0.778" height="23.86"/>
				</g>
			</g>
		</g>
		<g>
			<rect x="402.105" y="270.968" style="fill:#ECB220;" width="21.206" height="26.33"/>
			
				<rect x="355.622" y="270.968" transform="matrix(-1 -1.224647e-16 1.224647e-16 -1 757.7278 568.2655)" style="fill:#FF8B0D;" width="46.483" height="26.33"/>
			<g>
				<g>
					<rect x="357.38" y="272.446" style="fill:#DD6400;" width="2.267" height="23.86"/>
					<rect x="357.38" y="272.446" style="fill:#B54F02;" width="0.778" height="23.86"/>
				</g>
				<g>
					<rect x="361.402" y="272.446" style="fill:#DD6400;" width="2.267" height="23.86"/>
					<rect x="361.402" y="272.446" style="fill:#B54F02;" width="0.778" height="23.86"/>
				</g>
				<g>
					<rect x="365.425" y="272.446" style="fill:#DD6400;" width="2.267" height="23.86"/>
					<rect x="365.425" y="272.446" style="fill:#B54F02;" width="0.778" height="23.86"/>
				</g>
				<g>
					<rect x="369.447" y="272.446" style="fill:#DD6400;" width="2.267" height="23.86"/>
					<rect x="369.447" y="272.446" style="fill:#B54F02;" width="0.778" height="23.86"/>
				</g>
				<g>
					<rect x="373.47" y="272.446" style="fill:#DD6400;" width="2.268" height="23.86"/>
					<rect x="373.47" y="272.446" style="fill:#B54F02;" width="0.778" height="23.86"/>
				</g>
				<g>
					<rect x="377.492" y="272.446" style="fill:#DD6400;" width="2.268" height="23.86"/>
					<rect x="377.492" y="272.446" style="fill:#B54F02;" width="0.778" height="23.86"/>
				</g>
				<g>
					<rect x="381.515" y="272.446" style="fill:#DD6400;" width="2.267" height="23.86"/>
					<rect x="381.515" y="272.446" style="fill:#B54F02;" width="0.778" height="23.86"/>
				</g>
				<g>
					<rect x="385.537" y="272.446" style="fill:#DD6400;" width="2.268" height="23.86"/>
					<rect x="385.537" y="272.446" style="fill:#B54F02;" width="0.778" height="23.86"/>
				</g>
				<g>
					<rect x="389.56" y="272.446" style="fill:#DD6400;" width="2.268" height="23.86"/>
					<polyline style="fill:#B54F02;" points="389.56,292.405 389.56,272.446 390.338,272.446 390.338,296.306 389.56,296.306 
						389.56,292.405 					"/>
				</g>
				<g>
					<rect x="393.582" y="272.446" style="fill:#DD6400;" width="2.268" height="23.86"/>
					<rect x="393.582" y="272.446" style="fill:#B54F02;" width="0.778" height="23.86"/>
				</g>
				<g>
					<rect x="397.605" y="272.446" style="fill:#DD6400;" width="2.267" height="23.86"/>
					<rect x="397.605" y="272.446" style="fill:#B54F02;" width="0.778" height="23.86"/>
				</g>
			</g>
		</g>
		<g>
			<rect x="608.522" y="270.968" style="fill:#ECB220;" width="21.206" height="26.33"/>
			
				<rect x="562.039" y="270.968" transform="matrix(-1 -1.224647e-16 1.224647e-16 -1 1170.5607 568.2655)" style="fill:#FF8B0D;" width="46.483" height="26.33"/>
			<g>
				<g>
					<rect x="563.796" y="272.446" style="fill:#DD6400;" width="2.267" height="23.86"/>
					<rect x="563.796" y="272.446" style="fill:#B54F02;" width="0.778" height="23.86"/>
				</g>
				<g>
					<rect x="567.819" y="272.446" style="fill:#DD6400;" width="2.267" height="23.86"/>
					<rect x="567.819" y="272.446" style="fill:#B54F02;" width="0.778" height="23.86"/>
				</g>
				<g>
					<rect x="571.841" y="272.446" style="fill:#DD6400;" width="2.268" height="23.86"/>
					<rect x="571.841" y="272.446" style="fill:#B54F02;" width="0.778" height="23.86"/>
				</g>
				<g>
					<rect x="575.864" y="272.446" style="fill:#DD6400;" width="2.268" height="23.86"/>
					<rect x="575.864" y="272.446" style="fill:#B54F02;" width="0.778" height="23.86"/>
				</g>
				<g>
					<rect x="579.886" y="272.446" style="fill:#DD6400;" width="2.267" height="23.86"/>
					<rect x="579.886" y="272.446" style="fill:#B54F02;" width="0.778" height="23.86"/>
				</g>
				<g>
					<rect x="583.909" y="272.446" style="fill:#DD6400;" width="2.267" height="23.86"/>
					<rect x="583.909" y="272.446" style="fill:#B54F02;" width="0.778" height="23.86"/>
				</g>
				<g>
					<rect x="587.931" y="272.446" style="fill:#DD6400;" width="2.267" height="23.86"/>
					<rect x="587.931" y="272.446" style="fill:#B54F02;" width="0.778" height="23.86"/>
				</g>
				<g>
					<rect x="591.954" y="272.446" style="fill:#DD6400;" width="2.268" height="23.86"/>
					<rect x="591.954" y="272.446" style="fill:#B54F02;" width="0.778" height="23.86"/>
				</g>
				<g>
					<rect x="595.976" y="272.446" style="fill:#DD6400;" width="2.268" height="23.86"/>
					<polyline style="fill:#B54F02;" points="595.976,292.405 595.976,272.446 596.755,272.446 596.755,296.306 595.976,296.306 
						595.976,292.405 					"/>
				</g>
				<g>
					<rect x="599.999" y="272.446" style="fill:#DD6400;" width="2.267" height="23.86"/>
					<rect x="599.999" y="272.446" style="fill:#B54F02;" width="0.778" height="23.86"/>
				</g>
				<g>
					<rect x="604.021" y="272.446" style="fill:#DD6400;" width="2.268" height="23.86"/>
					<rect x="604.021" y="272.446" style="fill:#B54F02;" width="0.778" height="23.86"/>
				</g>
			</g>
		</g>
		<g>
			<rect x="454.155" y="270.968" style="fill:#C0F3FF;" width="21.206" height="26.33"/>
			
				<rect x="407.672" y="270.968" transform="matrix(-1 -1.224647e-16 1.224647e-16 -1 861.8267 568.2655)" style="fill:#98D3E5;" width="46.483" height="26.33"/>
			<g>
				<g>
					<rect x="409.429" y="272.446" style="fill:#579BAA;" width="2.267" height="23.86"/>
					<rect x="409.429" y="272.446" style="fill:#3E7084;" width="0.778" height="23.86"/>
				</g>
				<g>
					<rect x="413.452" y="272.446" style="fill:#579BAA;" width="2.267" height="23.86"/>
					<rect x="413.452" y="272.446" style="fill:#3E7084;" width="0.778" height="23.86"/>
				</g>
				<g>
					<rect x="417.474" y="272.446" style="fill:#579BAA;" width="2.268" height="23.86"/>
					<rect x="417.474" y="272.446" style="fill:#3E7084;" width="0.778" height="23.86"/>
				</g>
				<g>
					<rect x="421.497" y="272.446" style="fill:#579BAA;" width="2.268" height="23.86"/>
					<rect x="421.497" y="272.446" style="fill:#3E7084;" width="0.778" height="23.86"/>
				</g>
				<g>
					<rect x="425.519" y="272.446" style="fill:#579BAA;" width="2.267" height="23.86"/>
					<rect x="425.519" y="272.446" style="fill:#3E7084;" width="0.778" height="23.86"/>
				</g>
				<g>
					<rect x="429.542" y="272.446" style="fill:#579BAA;" width="2.267" height="23.86"/>
					<rect x="429.542" y="272.446" style="fill:#3E7084;" width="0.778" height="23.86"/>
				</g>
				<g>
					<rect x="433.564" y="272.446" style="fill:#579BAA;" width="2.267" height="23.86"/>
					<rect x="433.564" y="272.446" style="fill:#3E7084;" width="0.778" height="23.86"/>
				</g>
				<g>
					<rect x="437.587" y="272.446" style="fill:#579BAA;" width="2.268" height="23.86"/>
					<rect x="437.587" y="272.446" style="fill:#3E7084;" width="0.778" height="23.86"/>
				</g>
				<g>
					<rect x="441.609" y="272.446" style="fill:#579BAA;" width="2.268" height="23.86"/>
					<polyline style="fill:#3E7084;" points="441.609,292.405 441.609,272.446 442.387,272.446 442.387,296.306 441.609,296.306 
						441.609,292.405 					"/>
				</g>
				<g>
					<rect x="445.632" y="272.446" style="fill:#579BAA;" width="2.267" height="23.86"/>
					<rect x="445.632" y="272.446" style="fill:#3E7084;" width="0.778" height="23.86"/>
				</g>
				<g>
					<rect x="449.654" y="272.446" style="fill:#579BAA;" width="2.268" height="23.86"/>
					<rect x="449.654" y="272.446" style="fill:#3E7084;" width="0.778" height="23.86"/>
				</g>
			</g>
		</g>
		<path style="fill:#19283B;" d="M467.179,312.385l-10.756,10.756H86.895l13.981,52.372c4.793,23.883,25.77,41.069,50.129,41.069
			h383.071l3.407-14.876l37.691-11.368c43.122-15.23,65.184-32.862,76.422-46.243c7.457-8.879,11.51-20.116,11.51-31.711H467.179z
			 M488.77,322.801h-16.299c-1.591,0-2.88-1.29-2.88-2.88s1.29-2.88,2.88-2.88h16.299c1.591,0,2.88,1.29,2.88,2.88
			S490.361,322.801,488.77,322.801z M516.45,322.801h-16.299c-1.591,0-2.88-1.29-2.88-2.88s1.29-2.88,2.88-2.88h16.299
			c1.591,0,2.88,1.29,2.88,2.88S518.04,322.801,516.45,322.801z M544.129,322.801h-16.299c-1.591,0-2.88-1.29-2.88-2.88
			s1.29-2.88,2.88-2.88h16.299c1.591,0,2.88,1.29,2.88,2.88S545.72,322.801,544.129,322.801z M571.809,322.801H555.51
			c-1.591,0-2.88-1.29-2.88-2.88s1.29-2.88,2.88-2.88h16.299c1.591,0,2.88,1.29,2.88,2.88S573.4,322.801,571.809,322.801z
			 M599.489,322.801H583.19c-1.591,0-2.88-1.29-2.88-2.88s1.29-2.88,2.88-2.88h16.299c1.591,0,2.88,1.29,2.88,2.88
			S601.08,322.801,599.489,322.801z M627.169,322.801H610.87c-1.591,0-2.88-1.29-2.88-2.88s1.29-2.88,2.88-2.88h16.299
			c1.591,0,2.88,1.29,2.88,2.88S628.759,322.801,627.169,322.801z M654.848,322.801H638.55c-1.591,0-2.88-1.29-2.88-2.88
			s1.29-2.88,2.88-2.88h16.299c1.591,0,2.88,1.29,2.88,2.88S656.439,322.801,654.848,322.801z"/>
		<path style="fill:#1E3044;" d="M558.402,312.385L450.935,416.582h83.141l3.407-14.876l37.691-11.368
			c43.122-15.23,65.184-32.862,76.422-46.243c7.457-8.879,11.51-20.116,11.51-31.711H558.402z M571.809,322.801H555.51
			c-1.591,0-2.88-1.29-2.88-2.88s1.29-2.88,2.88-2.88h16.299c1.591,0,2.88,1.29,2.88,2.88S573.4,322.801,571.809,322.801z
			 M599.489,322.801H583.19c-1.591,0-2.88-1.29-2.88-2.88s1.29-2.88,2.88-2.88h16.299c1.591,0,2.88,1.29,2.88,2.88
			S601.08,322.801,599.489,322.801z M627.169,322.801H610.87c-1.591,0-2.88-1.29-2.88-2.88s1.29-2.88,2.88-2.88h16.299
			c1.591,0,2.88,1.29,2.88,2.88S628.759,322.801,627.169,322.801z M654.848,322.801H638.55c-1.591,0-2.88-1.29-2.88-2.88
			s1.29-2.88,2.88-2.88h16.299c1.591,0,2.88,1.29,2.88,2.88S656.439,322.801,654.848,322.801z"/>
		<path style="fill:#253B4F;" d="M87.959,327.129l8.948,33.517h536.867c7.835-5.882,13.595-11.517,17.822-16.55
			c4.218-5.022,7.344-10.798,9.267-16.967H87.959z"/>
		<path style="fill:#294459;" d="M651.596,344.096c4.218-5.022,7.344-10.798,9.267-16.967H551.978l-29.763,33.517h111.559
			C641.608,354.763,647.368,349.129,651.596,344.096z"/>
		<polygon style="fill:#19283B;" points="466.123,318.723 457.851,318.723 457.851,318.517 456.833,318.517 456.833,318.723 
			451.03,318.723 451.03,318.517 450.012,318.517 450.012,318.723 444.208,318.723 444.208,318.517 443.19,318.517 443.19,318.723 
			437.387,318.723 437.387,318.517 436.369,318.517 436.369,318.723 430.565,318.723 430.565,318.517 429.547,318.517 
			429.547,318.723 423.743,318.723 423.743,318.517 422.725,318.517 422.725,318.723 416.922,318.723 416.922,318.517 
			415.905,318.517 415.905,318.723 410.1,318.723 410.1,318.517 409.083,318.517 409.083,318.723 403.279,318.723 403.279,318.517 
			402.262,318.517 402.262,318.723 396.457,318.723 396.457,318.517 395.44,318.517 395.44,318.723 389.637,318.723 
			389.637,318.517 388.619,318.517 388.619,318.723 382.815,318.723 382.815,318.517 381.797,318.517 381.797,318.723 
			375.993,318.723 375.993,318.517 374.975,318.517 374.975,318.723 369.172,318.723 369.172,318.517 368.154,318.517 
			368.154,318.723 362.35,318.723 362.35,318.517 361.332,318.517 361.332,318.723 355.528,318.723 355.528,318.517 
			354.511,318.517 354.511,318.723 348.707,318.723 348.707,318.517 347.689,318.517 347.689,318.723 341.886,318.723 
			341.886,318.517 340.868,318.517 340.868,318.723 335.064,318.723 335.064,318.517 334.047,318.517 334.047,318.723 
			328.242,318.723 328.242,318.517 327.225,318.517 327.225,318.723 321.421,318.723 321.421,318.517 320.403,318.517 
			320.403,318.723 314.599,318.723 314.599,318.517 313.582,318.517 313.582,318.723 307.778,318.723 307.778,318.517 
			306.76,318.517 306.76,318.723 300.957,318.723 300.957,318.517 299.939,318.517 299.939,318.723 294.135,318.723 
			294.135,318.517 293.117,318.517 293.117,318.723 287.313,318.723 287.313,318.517 286.296,318.517 286.296,318.723 
			280.492,318.723 280.492,318.517 279.474,318.517 279.474,318.723 273.671,318.723 273.671,318.517 272.653,318.517 
			272.653,318.723 266.849,318.723 266.849,318.517 265.832,318.517 265.832,318.723 260.028,318.723 260.028,318.517 
			259.01,318.517 259.01,318.723 253.206,318.723 253.206,318.517 252.188,318.517 252.188,318.723 246.384,318.723 
			246.384,318.517 245.367,318.517 245.367,318.723 239.563,318.723 239.563,318.517 238.545,318.517 238.545,318.723 
			232.742,318.723 232.742,318.517 231.724,318.517 231.724,318.723 225.92,318.723 225.92,318.517 224.902,318.517 
			224.902,318.723 219.098,318.723 219.098,318.517 218.081,318.517 218.081,318.723 212.277,318.723 212.277,318.517 
			211.259,318.517 211.259,318.723 205.455,318.723 205.455,318.517 204.438,318.517 204.438,318.723 198.634,318.723 
			198.634,318.517 197.616,318.517 197.616,318.723 191.813,318.723 191.813,318.517 190.795,318.517 190.795,318.723 
			184.991,318.723 184.991,318.517 183.973,318.517 183.973,318.723 178.169,318.723 178.169,318.517 177.152,318.517 
			177.152,318.723 171.348,318.723 171.348,318.517 170.33,318.517 170.33,318.723 164.526,318.723 164.526,318.517 
			163.509,318.517 163.509,318.723 157.705,318.723 157.705,318.517 156.687,318.517 156.687,318.723 150.883,318.723 
			150.883,318.517 149.866,318.517 149.866,318.723 144.062,318.723 144.062,318.517 143.044,318.517 143.044,318.723 
			137.24,318.723 137.24,318.517 136.223,318.517 136.223,318.723 130.419,318.723 130.419,318.517 129.401,318.517 
			129.401,318.723 123.597,318.723 123.597,318.517 122.58,318.517 122.58,318.723 116.776,318.723 116.776,318.517 
			115.758,318.517 115.758,318.723 109.954,318.723 109.954,318.517 108.937,318.517 108.937,318.723 103.133,318.723 
			103.133,318.517 102.115,318.517 102.115,318.723 96.311,318.723 96.311,318.517 95.294,318.517 95.294,318.723 89.49,318.723 
			89.49,318.517 88.472,318.517 88.472,318.723 86.895,318.723 86.895,319.74 88.472,319.74 88.472,324.645 89.49,324.645 
			89.49,319.74 95.294,319.74 95.294,324.645 96.311,324.645 96.311,319.74 102.115,319.74 102.115,324.645 103.133,324.645 
			103.133,319.74 108.937,319.74 108.937,324.645 109.954,324.645 109.954,319.74 115.758,319.74 115.758,324.645 116.776,324.645 
			116.776,319.74 122.58,319.74 122.58,324.645 123.597,324.645 123.597,319.74 129.401,319.74 129.401,324.645 130.419,324.645 
			130.419,319.74 136.223,319.74 136.223,324.645 137.24,324.645 137.24,319.74 143.044,319.74 143.044,324.645 144.062,324.645 
			144.062,319.74 149.866,319.74 149.866,324.645 150.883,324.645 150.883,319.74 156.687,319.74 156.687,324.645 157.705,324.645 
			157.705,319.74 163.509,319.74 163.509,324.645 164.526,324.645 164.526,319.74 170.33,319.74 170.33,324.645 171.348,324.645 
			171.348,319.74 177.152,319.74 177.152,324.645 178.169,324.645 178.169,319.74 183.973,319.74 183.973,324.645 184.991,324.645 
			184.991,319.74 190.795,319.74 190.795,324.645 191.813,324.645 191.813,319.74 197.616,319.74 197.616,324.645 198.634,324.645 
			198.634,319.74 204.438,319.74 204.438,324.645 205.455,324.645 205.455,319.74 211.259,319.74 211.259,324.645 212.277,324.645 
			212.277,319.74 218.081,319.74 218.081,324.645 219.098,324.645 219.098,319.74 224.902,319.74 224.902,324.645 225.92,324.645 
			225.92,319.74 231.724,319.74 231.724,324.645 232.742,324.645 232.742,319.74 238.545,319.74 238.545,324.645 239.563,324.645 
			239.563,319.74 245.367,319.74 245.367,324.645 246.384,324.645 246.384,319.74 252.188,319.74 252.188,324.645 253.206,324.645 
			253.206,319.74 259.01,319.74 259.01,324.645 260.028,324.645 260.028,319.74 265.832,319.74 265.832,324.645 266.849,324.645 
			266.849,319.74 272.653,319.74 272.653,324.645 273.671,324.645 273.671,319.74 279.474,319.74 279.474,324.645 280.492,324.645 
			280.492,319.74 286.296,319.74 286.296,324.645 287.313,324.645 287.313,319.74 293.117,319.74 293.117,324.645 294.135,324.645 
			294.135,319.74 299.939,319.74 299.939,324.645 300.957,324.645 300.957,319.74 306.76,319.74 306.76,324.645 307.778,324.645 
			307.778,319.74 313.582,319.74 313.582,324.645 314.599,324.645 314.599,319.74 320.403,319.74 320.403,324.645 321.421,324.645 
			321.421,319.74 327.225,319.74 327.225,324.645 328.242,324.645 328.242,319.74 334.047,319.74 334.047,324.645 335.064,324.645 
			335.064,319.74 340.868,319.74 340.868,324.645 341.886,324.645 341.886,319.74 347.689,319.74 347.689,324.645 348.707,324.645 
			348.707,319.74 354.511,319.74 354.511,324.645 355.528,324.645 355.528,319.74 361.332,319.74 361.332,324.645 362.35,324.645 
			362.35,319.74 368.154,319.74 368.154,324.645 369.172,324.645 369.172,319.74 374.975,319.74 374.975,324.645 375.993,324.645 
			375.993,319.74 381.797,319.74 381.797,324.645 382.815,324.645 382.815,319.74 388.619,319.74 388.619,324.645 389.637,324.645 
			389.637,319.74 395.44,319.74 395.44,324.645 396.457,324.645 396.457,319.74 402.262,319.74 402.262,324.645 403.279,324.645 
			403.279,319.74 409.083,319.74 409.083,324.645 410.1,324.645 410.1,319.74 415.905,319.74 415.905,324.645 416.922,324.645 
			416.922,319.74 422.725,319.74 422.725,324.645 423.743,324.645 423.743,319.74 429.547,319.74 429.547,324.645 430.565,324.645 
			430.565,319.74 436.369,319.74 436.369,324.645 437.387,324.645 437.387,319.74 443.19,319.74 443.19,324.645 444.208,324.645 
			444.208,319.74 450.012,319.74 450.012,324.645 451.03,324.645 451.03,319.74 456.833,319.74 456.833,324.645 457.851,324.645 
			457.851,319.74 466.123,319.74 		"/>
		<path style="fill:#E71C2E;" d="M119.2,405.473c8.797,6.992,19.893,11.109,31.805,11.109h383.071l2.544-11.109H119.2z"/>
		<path style="fill:#AD1E58;" d="M119.2,405.472c8.797,6.992,19.893,11.109,31.805,11.109h309.286v-11.109H119.2z"/>
		<path style="fill:#C0F3FF;" d="M105.471,388.701h474.223c2.288-0.846,4.514-1.698,6.679-2.555H104.246
			C104.629,387.013,105.043,387.862,105.471,388.701z"/>
	</g>
</g>
</svg>
